<?xml version="1.0" encoding="utf-8"?>
<svg viewBox="174.882 152.163 50.404 50.404" xmlns="http://www.w3.org/2000/svg">
  <defs>
    <radialGradient gradientUnits="userSpaceOnUse" cx="200.084" cy="177.365" r="25.202" id="gradient-0" gradientTransform="matrix(0.81352, 0.568764, -0.572989, 0.819563, 138.939937, -81.797416)">
      <stop offset="0" style="stop-color: rgb(92, 255, 187);"/>
      <stop offset="1" style="stop-color: rgba(255, 255, 255, 0);"/>
    </radialGradient>
  </defs>
  <rect x="174.882" y="152.163" width="50.404" height="50.404" style="fill: url(#gradient-0);"/>
  <path d="M 199.534 167.988 Q 201.422 168.916 201.422 170.036 Q 201.422 170.548 200.942 171.572 L 192.11 189.492 Q 191.758 190.196 191.038 190.628 Q 190.318 191.06 189.55 191.06 L 189.23 191.06 Q 188.43 191.06 187.71 190.628 Q 186.99 190.196 186.638 189.492 L 177.806 171.572 Q 177.326 170.548 177.326 170.036 Q 177.326 168.916 179.214 167.988 Q 180.27 167.444 180.83 167.444 Q 181.39 167.444 181.678 167.572 Q 181.966 167.7 182.222 168.02 Q 182.51 168.404 182.75 168.868 Q 182.99 169.332 183.982 171.524 Q 184.974 173.716 186.11 176.18 Q 187.246 178.644 188.254 180.836 Q 189.262 183.028 189.39 183.284 L 195.79 169.268 Q 196.046 168.66 196.238 168.308 Q 196.814 167.444 197.646 167.444 Q 198.478 167.444 199.534 167.988 Z" style="fill: rgb(5, 199, 73); stroke: rgb(33, 34, 32); white-space: pre;"/>
  <path d="M 211.564 167.284 Q 215.5 167.284 217.772 169.524 Q 220.044 171.764 220.044 174.564 Q 220.044 177.364 217.548 178.612 L 217.548 178.836 Q 217.868 178.996 218.492 179.524 Q 219.116 180.052 219.5 180.564 Q 220.556 181.908 220.556 183.636 Q 220.556 187.06 217.996 189.284 Q 215.436 191.508 211.564 191.508 Q 207.724 191.508 205.164 189.268 Q 204.204 188.404 203.468 186.996 Q 203.212 186.484 203.116 186.164 L 203.052 185.844 Q 202.7 184.788 202.7 184.116 Q 202.7 182.26 205.836 182.26 Q 207.116 182.26 207.532 182.58 Q 208.076 182.996 208.492 184.244 Q 208.812 185.268 210.252 185.78 Q 210.86 185.972 211.596 185.972 Q 213.292 185.972 214.092 185.284 Q 214.892 184.596 214.892 183.732 Q 214.892 182.868 214.108 182.212 Q 213.324 181.556 212.252 181.556 Q 211.18 181.556 210.796 181.492 Q 210.412 181.428 209.964 181.172 Q 209.1 180.756 209.1 178.708 Q 209.1 176.468 210.284 176.052 Q 210.828 175.892 211.948 175.892 Q 214.38 175.892 214.38 174.644 Q 214.38 173.972 213.74 173.364 Q 213.1 172.756 211.964 172.756 Q 210.828 172.756 210.156 173.14 Q 209.484 173.524 209.324 173.908 L 209.132 174.292 Q 208.396 175.892 207.02 175.892 Q 206.22 175.892 205.26 175.316 Q 203.66 174.388 203.66 173.172 Q 203.66 172.66 204.396 170.996 Q 204.524 170.708 205.1 169.988 Q 205.676 169.268 206.428 168.724 Q 207.18 168.18 208.54 167.732 Q 209.9 167.284 211.564 167.284 Z" style="fill: rgb(5, 199, 73); stroke: rgb(33, 34, 32); white-space: pre;"/>
</svg>